<svg xmlns="http://www.w3.org/2000/svg" version="1.1" xmlns:xlink="http://www.w3.org/1999/xlink" xmlns:svgjs="http://svgjs.dev/svgjs" width="128" height="128" viewBox="0 0 128 128"><g transform="matrix(0.8046875,0,0,0.8046875,12.333870967741937,12.333870967741937)"><svg viewBox="0 0 155 155" data-background-color="#636365" preserveAspectRatio="xMidYMid meet" height="128" width="128" xmlns="http://www.w3.org/2000/svg" xmlns:xlink="http://www.w3.org/1999/xlink"><g id="tight-bounds" transform="matrix(1,0,0,1,0.25,0.25)"><svg viewBox="0 0 154.5 154.5" height="154.5" width="154.5"><g><svg></svg></g><g><svg viewBox="0 0 154.5 154.5" height="154.5" width="154.5"><g transform="matrix(1,0,0,1,47.74637100000001,54.05290879739778)"><svg viewBox="0 0 59.007257999999986 46.394182405204454" height="46.394182405204454" width="59.007257999999986"><g><svg viewBox="0 0 59.007257999999986 46.394182405204454" height="46.394182405204454" width="59.007257999999986"><g><svg viewBox="0 0 59.007257999999986 46.394182405204454" height="46.394182405204454" width="59.007257999999986"><g><svg viewBox="0 0 59.007257999999986 46.394182405204454" height="46.394182405204454" width="59.007257999999986"><g><svg viewBox="0 0 59.007257999999986 46.394182405204454" height="46.394182405204454" width="59.007257999999986"><g transform="matrix(1,0,0,1,0,0)"><svg width="59.007257999999986" viewBox="1.9499999999999997 -35.8 53.8 42.3" height="46.394182405204454" data-palette-color="#d2d6dc"><path d="M34.2-23.85L34.2-23.85Q34.2-23.45 33.18-23.45 32.15-23.45 31.13-24.48 30.1-25.5 30.1-26.98 30.1-28.45 31-29.65L31-29.65Q32.9-32.25 37.35-33.35L37.35-33.35Q40.55-34.15 43.75-34.15L43.75-34.15 44.15-34.15Q44.6-34.15 46.6-34L46.6-34Q46.5-34.65 47.13-35.23 47.75-35.8 48.55-35.8L48.55-35.8Q50.05-35.8 50-33.65L50-33.65Q55.4-32.7 55.7-30.75L55.7-30.75Q55.75-30.3 55.75-30L55.75-30Q55.75-29 55.18-29 54.6-29 54.8-30.2L54.8-30.2Q53.55-32.05 49.85-32.8L49.85-32.8Q48.95-28.75 40.45-15.2L40.45-15.2Q34.8-6.3 27.3-0.3L27.3-0.3Q18.7 6.5 11.1 6.5L11.1 6.5Q6.45 6.5 4.2 4.15 1.95 1.8 1.95-1.07 1.95-3.95 3.05-6L3.05-6Q5.7-11.1 10.7-13.95L10.7-13.95Q14.4-16.1 17.55-16.1L17.55-16.1Q20.95-16.1 22.88-14.45 24.8-12.8 24.8-10.3L24.8-10.3Q24.8-7.6 22.8-5.4L22.8-5.4Q21.55-4 20.8-4L20.8-4Q20.6-4 20.6-4.17 20.6-4.35 20.75-4.65L20.75-4.65Q22.55-7.3 22.55-9.58 22.55-11.85 21.3-13.3L21.3-13.3Q19.85-14.85 17.38-14.85 14.9-14.85 11.85-12.85L11.85-12.85Q8.1-10.4 5.7-5.5L5.7-5.5Q4.45-3.05 4.45-0.43 4.45 2.2 6.4 3.83 8.35 5.45 11.65 5.45L11.65 5.45Q24.35 5.45 38.2-16.85L38.2-16.85Q46.5-30.15 46.7-33.15L46.7-33.15Q43.7-33.3 43.55-33.3L43.55-33.3Q41.2-33.3 37.52-32 33.85-30.7 32.75-28.8L32.75-28.8Q32.3-28.05 32.3-27.15 32.3-26.25 33.25-25.15 34.2-24.05 34.2-23.85Z" opacity="1" transform="matrix(1,0,0,1,0,0)" fill="#000000" class="undefined-text-0" data-fill-palette-color="primary" id="text-0"></path></svg></g></svg></g></svg></g></svg></g></svg></g></svg></g><g><path d="M60.053 43.1A29.504 29.504 0 0 1 94.447 43.1L90.263 43.1A25.32 25.32 0 0 0 64.237 43.1L60.053 43.1M60.053 111.4A29.504 29.504 0 0 0 94.447 111.4L90.263 111.4A25.32 25.32 0 0 1 64.237 111.4L60.053 111.4" fill="#000000" stroke="transparent" data-fill-palette-color="tertiary"></path></g></svg></g><defs></defs></svg><rect width="154.5" height="154.5" fill="none" stroke="none" visibility="hidden"></rect></g></svg></g></svg>