<svg xmlns="http://www.w3.org/2000/svg" version="1.1" xmlns:xlink="http://www.w3.org/1999/xlink" xmlns:svgjs="http://svgjs.dev/svgjs" width="2000" height="2250" viewBox="0 0 2000 2250"><g transform="matrix(1,0,0,1,3.410605131648481e-13,0)"><svg viewBox="0 0 320 360" data-background-color="#ffffff" preserveAspectRatio="xMidYMid meet" height="2250" width="2000" xmlns="http://www.w3.org/2000/svg" xmlns:xlink="http://www.w3.org/1999/xlink"><g id="tight-bounds" transform="matrix(1,0,0,1,0,0)"><svg viewBox="0 0 320 360" height="360" width="320"><g><svg></svg></g><g><svg viewBox="0 0 320 360" height="360" width="320"><g><path xmlns="http://www.w3.org/2000/svg" d="M20.961 227.22l3.726 4.658-1.863-6.056c-0.466-2.795-3.726 0.466-1.863 1.398M25.153 224.425c1.397 2.329 2.795 4.658 2.795 6.987 0 3.261 2.795 4.658 5.123 5.589-3.261-3.726-5.124-13.974-7.918-12.576M204.017 26.929c7.918 0 15.371-0.932 23.756 0.931 20.495 5.124 37.729 15.371 49.374 29.811l32.606 52.169c1.397 13.042 4.192 27.482 3.726 43.319 3.261 0 2.795-4.658 6.521-5.59-3.726 9.316-5.59 20.961-6.521 34.469-2.329-7.453 0-18.632 0.466-24.687-3.261 5.124-5.124 1.397-5.124-0.932 0.466-3.726-1.397-3.261-2.795-4.658-5.124-4.658-8.384-9.782-12.11-17.7 2.329-6.055 2.795-14.905-4.658-19.563-2.329-1.397-5.124-3.726-6.521-7.453-1.863-5.124-5.124-11.179-4.193-19.097 0.466-2.329-6.987 5.124-11.179 1.863-18.166-12.576-36.332-27.016-58.224-39.127-11.645 0-20.029-4.192-24.221-9.316-3.726-4.658-0.932-10.713 4.658-11.179 3.261 0 6.987-0.932 9.782 0.932 0.466-1.863 2.329-4.192 4.657-4.192M157.904 16.215l0.932 0.466c4.658 0.932 6.987 7.453 12.11 5.124 0 3.261 0.466 6.521-0.466 8.85-1.397 3.726-5.59 3.726-8.85 3.726-31.208-1.863-49.374 11.179-68.471 22.358-5.124 3.261-10.713 5.59-14.906 9.782-20.029 18.632-41.921 35.866-47.045 70.335l-4.192 38.195c-0.466 4.192-5.124 8.384-4.192 13.508l3.26 22.824c-3.261-3.261-5.124 0.932-4.192 2.795 0.466 1.397 2.329 6.055 5.124 1.863 3.726 6.987 7.453 20.495 12.576 26.55 15.837 18.632 36.332 35.4 53.101 52.169 4.192-0.932 7.453-0.932 8.384-3.727 1.397 2.795-1.397 5.59-3.726 6.056 7.453 4.658 15.837 8.85 27.016 9.781 14.44 0.932 27.948 3.261 40.524 6.522 6.521-1.863 13.042-2.795 20.029-3.261 2.329 0 3.726-3.726 6.521-4.658l0.466-4.658c2.795 4.192 2.329-1.397 0.466-4.192 3.261 2.795 4.192 5.124 5.589 6.987 0-1.397 3.726-6.521 3.727-0.466l0.931-6.055c1.397-0.932 1.863 5.124 3.261 0.931 1.397-4.192 4.192-0.932 6.987-2.329-0.932 1.863-0.466 5.59 2.794 3.261l3.727-3.261c2.329 5.59 6.055 3.261 7.918 2.329 20.495-13.042 40.99-28.413 60.553-43.784l-0.466 6.055 2.329-7.453c2.329 2.329 4.192 0.466 5.124-0.931 2.795-4.658 6.521-9.316 12.577-13.508-7.453 20.029-16.303 35.866-27.482 48.908l-4.658 5.59c0 3.261-0.932 7.453-4.658 7.918-1.863 0.466-5.59-0.932-8.384 1.863-1.397 1.863 3.261 5.59-0.466 2.795-3.261-2.329-6.521 0-10.248 0.932-2.795 0.932 1.863 3.726 2.795 5.589 0.932 1.863 1.863 3.726 1.398 6.056l-5.124-5.59c-6.055 3.261-9.782 9.316-14.906 13.974-2.329 1.863-1.397 5.124-1.397 7.918-3.261 0-6.987-0.932-8.85 0.932-1.397 1.863-0.932 4.658-0.932 7.453-4.658-0.466-5.124-7.453-9.315-6.056-4.192 0.932-8.85 1.397-12.577 3.727 2.795 5.59-4.658 2.329-3.726 3.26-6.987-4.192-13.042-7.453-20.495-4.658-15.837-5.124-35.4-2.795-49.84-0.931 0-2.329 0.466-4.658-0.466-5.124-0.932 2.329-3.726 1.397-3.26 1.397-8.85-6.055-17.7-9.782-27.016-14.905-8.384 0.932-16.303-3.261-18.632-5.59-6.521-6.055-13.974-2.795-20.029-4.192-13.042-3.261-17.7-16.769-19.098-26.084-0.932-4.658-4.658-6.521-6.055-6.056-6.055-19.563-15.371-37.263-22.824-55.429-1.863-4.658-1.397-9.316-1.397-14.44 2.329 0.932 4.658 0.466 4.192-2.794-2.329-15.371-7.918-27.016-13.974-38.195 3.261-15.837 3.726-34.469 11.179-48.443 6.521-12.576 18.632-19.098 27.016-29.811 2.795-3.726 2.795-8.85 5.59-12.11 9.316-9.316 18.632-19.098 28.879-27.482 4.658-3.726 10.247 0 17.234-1.397 2.329-8.384 11.645-15.837 20.495-13.508 3.726 0.932 11.179-8.85 13.508-9.782 3.726-1.397 1.863 3.726 1.863 6.987 8.85-6.987 20.961-10.713 32.14-14.906" fill="#ff0000" fill-rule="nonzero" stroke="none" stroke-width="1" stroke-linecap="butt" stroke-linejoin="miter" stroke-miterlimit="10" stroke-dasharray="" stroke-dashoffset="0" font-family="none" font-weight="none" font-size="none" text-anchor="none" style="mix-blend-mode: normal" data-fill-palette-color="tertiary"></path></g><g transform="matrix(1,0,0,1,133.05111368810586,90)"><svg viewBox="0 0 53.89777262378828 180" height="180" width="53.89777262378828"><g><svg viewBox="0 0 53.89777262378828 180" height="180" width="53.89777262378828"><g><svg viewBox="0 0 98.25171927877948 328.12690783393765" height="180" width="53.89777262378828"><g transform="matrix(1,0,0,1,0,113.96188633543413)"><svg viewBox="0 0 98.25171927877948 214.1650214985035" height="214.1650214985035" width="98.25171927877948"><g><svg viewBox="0 0 98.25171927877948 214.1650214985035" height="214.1650214985035" width="98.25171927877948"><g><svg viewBox="0 0 98.25171927877948 178.88760000000002" height="178.88760000000002" width="98.25171927877948"><g transform="matrix(1,0,0,1,0,0)"><svg width="98.25171927877948" viewBox="0.6000000238418579 -35.5 19.799999237060547 36.04999923706055" height="178.88760000000002" data-palette-color="#ff0000"><path d="M0.6-1.65L1.75-5.3Q2.7-4.65 4.38-4.08 6.05-3.5 8.35-3.5L8.35-3.5Q10.7-3.5 12.2-4.28 13.7-5.05 14.5-6.63 15.3-8.2 15.6-10.65 15.9-13.1 15.9-16.45L15.9-16.45 15.9-35.5 20.4-35.5 20.4-17.45Q20.4-13.5 20-10.2 19.6-6.9 18.4-4.48 17.2-2.05 14.83-0.75 12.45 0.55 8.5 0.55L8.5 0.55Q6 0.55 4.1 0 2.2-0.55 0.6-1.65L0.6-1.65Z" opacity="1" transform="matrix(1,0,0,1,0,0)" fill="#ff0000" class="undefined-text-0" data-fill-palette-color="primary" id="text-0"></path></svg></g></svg></g><g transform="matrix(1,0,0,1,0,204.99159414240003)"><svg viewBox="0 0 98.25171927877948 9.1734273561035" height="9.1734273561035" width="98.25171927877948"><g transform="matrix(1,0,0,1,0,0)"><svg width="98.25171927877948" viewBox="4.949999809265137 -37.099998474121094 501.2099914550781 46.79999923706055" height="9.1734273561035" data-palette-color="#ffffff"><path d="M19.6-30.95Q14.8-30.95 12.38-28.78 9.95-26.6 9.95-22.45L9.95-22.45 9.95-18.45 25.95-18.45 25.95-14.15 9.95-14.15 9.95 0 4.95 0 4.95-22.5Q4.95-28.55 8.78-31.98 12.6-35.4 19.45-35.4L19.45-35.4Q22.45-35.4 25.05-34.73 27.65-34.05 29.55-32.75L29.55-32.75 27.9-28.6Q24.55-30.95 19.6-30.95L19.6-30.95ZM38.45-22.05Q39.7-24.35 42.15-25.55 44.6-26.75 48.1-26.75L48.1-26.75 48.1-22.1Q47.7-22.15 47-22.15L47-22.15Q43.1-22.15 40.87-19.83 38.65-17.5 38.65-13.2L38.65-13.2 38.65 0 33.85 0 33.85-26.5 38.45-26.5 38.45-22.05ZM65.09 0.3Q61.15 0.3 58-1.45 54.84-3.2 53.07-6.28 51.3-9.35 51.3-13.25L51.3-13.25Q51.3-17.15 53.07-20.23 54.84-23.3 58-25.03 61.15-26.75 65.09-26.75L65.09-26.75Q69.05-26.75 72.17-25.03 75.3-23.3 77.07-20.23 78.84-17.15 78.84-13.25L78.84-13.25Q78.84-9.35 77.07-6.28 75.3-3.2 72.17-1.45 69.05 0.3 65.09 0.3L65.09 0.3ZM65.09-3.9Q67.64-3.9 69.67-5.08 71.69-6.25 72.84-8.38 74-10.5 74-13.25L74-13.25Q74-16 72.84-18.13 71.69-20.25 69.67-21.4 67.64-22.55 65.09-22.55L65.09-22.55Q62.55-22.55 60.52-21.4 58.5-20.25 57.32-18.13 56.15-16 56.15-13.25L56.15-13.25Q56.15-10.5 57.32-8.38 58.5-6.25 60.52-5.08 62.55-3.9 65.09-3.9L65.09-3.9ZM99.64-26.75Q104.69-26.75 107.67-23.83 110.64-20.9 110.64-15.25L110.64-15.25 110.64 0 105.84 0 105.84-14.7Q105.84-18.55 103.99-20.5 102.14-22.45 98.69-22.45L98.69-22.45Q94.79-22.45 92.54-20.18 90.29-17.9 90.29-13.65L90.29-13.65 90.29 0 85.49 0 85.49-26.5 90.09-26.5 90.09-22.5Q91.54-24.55 94.02-25.65 96.49-26.75 99.64-26.75L99.64-26.75ZM131.99-5L133.49-1.55Q132.44-0.65 130.89-0.18 129.34 0.3 127.69 0.3L127.69 0.3Q123.69 0.3 121.49-1.85 119.29-4 119.29-8L119.29-8 119.29-32.3 124.09-32.3 124.09-26.5 131.69-26.5 131.69-22.55 124.09-22.55 124.09-8.2Q124.09-6.05 125.17-4.9 126.24-3.75 128.24-3.75L128.24-3.75Q130.44-3.75 131.99-5L131.99-5ZM150.34-3.9Q155.09-3.9 157.99-7.1L157.99-7.1 160.59-4Q158.84-1.9 156.16-0.8 153.49 0.3 150.19 0.3L150.19 0.3Q145.99 0.3 142.74-1.43 139.49-3.15 137.71-6.25 135.94-9.35 135.94-13.25L135.94-13.25Q135.94-17.1 137.66-20.2 139.39-23.3 142.41-25.03 145.44-26.75 149.24-26.75L149.24-26.75Q152.84-26.75 155.79-25.13 158.74-23.5 160.49-20.55 162.24-17.6 162.29-13.75L162.29-13.75 141.24-9.65Q142.24-6.9 144.61-5.4 146.99-3.9 150.34-3.9L150.34-3.9ZM149.24-22.7Q146.74-22.7 144.76-21.55 142.79-20.4 141.69-18.32 140.59-16.25 140.59-13.5L140.59-13.5 140.59-13 157.54-16.2Q156.89-19.1 154.64-20.9 152.39-22.7 149.24-22.7L149.24-22.7ZM183.13-26.75Q188.19-26.75 191.16-23.83 194.13-20.9 194.13-15.25L194.13-15.25 194.13 0 189.34 0 189.34-14.7Q189.34-18.55 187.49-20.5 185.63-22.45 182.19-22.45L182.19-22.45Q178.28-22.45 176.03-20.18 173.78-17.9 173.78-13.65L173.78-13.65 173.78 0 168.99 0 168.99-26.5 173.59-26.5 173.59-22.5Q175.03-24.55 177.51-25.65 179.99-26.75 183.13-26.75L183.13-26.75ZM223.38-37.1L228.18-37.1 228.18 0 223.58 0 223.58-4.2Q221.98-2 219.53-0.85 217.08 0.3 214.13 0.3L214.13 0.3Q210.28 0.3 207.23-1.4 204.18-3.1 202.46-6.18 200.73-9.25 200.73-13.25L200.73-13.25Q200.73-17.25 202.46-20.3 204.18-23.35 207.23-25.05 210.28-26.75 214.13-26.75L214.13-26.75Q216.98-26.75 219.38-25.68 221.78-24.6 223.38-22.5L223.38-22.5 223.38-37.1ZM214.53-3.9Q217.03-3.9 219.08-5.08 221.13-6.25 222.28-8.38 223.43-10.5 223.43-13.25L223.43-13.25Q223.43-16 222.28-18.13 221.13-20.25 219.08-21.4 217.03-22.55 214.53-22.55L214.53-22.55Q211.98-22.55 209.96-21.4 207.93-20.25 206.76-18.13 205.58-16 205.58-13.25L205.58-13.25Q205.58-10.5 206.76-8.38 207.93-6.25 209.96-5.08 211.98-3.9 214.53-3.9L214.53-3.9ZM251.43 0L251.43-35 266.18-35Q271.73-35 276.03-32.8 280.33-30.6 282.7-26.63 285.08-22.65 285.08-17.5L285.08-17.5Q285.08-12.35 282.7-8.38 280.33-4.4 276.03-2.2 271.73 0 266.18 0L266.18 0 251.43 0ZM256.43-4.35L265.88-4.35Q270.13-4.35 273.35-6 276.58-7.65 278.33-10.63 280.08-13.6 280.08-17.5L280.08-17.5Q280.08-21.4 278.33-24.38 276.58-27.35 273.35-29 270.13-30.65 265.88-30.65L265.88-30.65 256.43-30.65 256.43-4.35ZM303.98-3.9Q308.73-3.9 311.63-7.1L311.63-7.1 314.23-4Q312.48-1.9 309.8-0.8 307.13 0.3 303.83 0.3L303.83 0.3Q299.63 0.3 296.38-1.43 293.13-3.15 291.35-6.25 289.58-9.35 289.58-13.25L289.58-13.25Q289.58-17.1 291.3-20.2 293.03-23.3 296.05-25.03 299.08-26.75 302.88-26.75L302.88-26.75Q306.48-26.75 309.43-25.13 312.38-23.5 314.13-20.55 315.88-17.6 315.93-13.75L315.93-13.75 294.88-9.65Q295.88-6.9 298.25-5.4 300.63-3.9 303.98-3.9L303.98-3.9ZM302.88-22.7Q300.38-22.7 298.4-21.55 296.43-20.4 295.33-18.32 294.23-16.25 294.23-13.5L294.23-13.5 294.23-13 311.18-16.2Q310.53-19.1 308.28-20.9 306.03-22.7 302.88-22.7L302.88-22.7ZM340.87-26.5L345.57-26.5 333.97 0 329.07 0 317.47-26.5 322.47-26.5 331.57-5.25 340.87-26.5ZM361.27-3.9Q366.02-3.9 368.92-7.1L368.92-7.1 371.52-4Q369.77-1.9 367.1-0.8 364.42 0.3 361.12 0.3L361.12 0.3Q356.92 0.3 353.67-1.43 350.42-3.15 348.65-6.25 346.87-9.35 346.87-13.25L346.87-13.25Q346.87-17.1 348.6-20.2 350.32-23.3 353.35-25.03 356.37-26.75 360.17-26.75L360.17-26.75Q363.77-26.75 366.72-25.13 369.67-23.5 371.42-20.55 373.17-17.6 373.22-13.75L373.22-13.75 352.17-9.65Q353.17-6.9 355.55-5.4 357.92-3.9 361.27-3.9L361.27-3.9ZM360.17-22.7Q357.67-22.7 355.7-21.55 353.72-20.4 352.62-18.32 351.52-16.25 351.52-13.5L351.52-13.5 351.52-13 368.47-16.2Q367.82-19.1 365.57-20.9 363.32-22.7 360.17-22.7L360.17-22.7ZM387.97 0.3Q384.12 0.3 382.02-1.83 379.92-3.95 379.92-7.8L379.92-7.8 379.92-37.1 384.72-37.1 384.72-8.2Q384.72-6.05 385.74-4.9 386.77-3.75 388.82-3.75L388.82-3.75Q390.07-3.75 391.17-4.25L391.17-4.25 391.42-0.3Q389.77 0.3 387.97 0.3L387.97 0.3ZM406.82 0.3Q402.87 0.3 399.72-1.45 396.57-3.2 394.79-6.28 393.02-9.35 393.02-13.25L393.02-13.25Q393.02-17.15 394.79-20.23 396.57-23.3 399.72-25.03 402.87-26.75 406.82-26.75L406.82-26.75Q410.77-26.75 413.89-25.03 417.02-23.3 418.79-20.23 420.57-17.15 420.57-13.25L420.57-13.25Q420.57-9.35 418.79-6.28 417.02-3.2 413.89-1.45 410.77 0.3 406.82 0.3L406.82 0.3ZM406.82-3.9Q409.37-3.9 411.39-5.08 413.42-6.25 414.57-8.38 415.72-10.5 415.72-13.25L415.72-13.25Q415.72-16 414.57-18.13 413.42-20.25 411.39-21.4 409.37-22.55 406.82-22.55L406.82-22.55Q404.27-22.55 402.24-21.4 400.22-20.25 399.04-18.13 397.87-16 397.87-13.25L397.87-13.25Q397.87-10.5 399.04-8.38 400.22-6.25 402.24-5.08 404.27-3.9 406.82-3.9L406.82-3.9ZM441.26-26.75Q445.11-26.75 448.16-25.05 451.21-23.35 452.94-20.3 454.66-17.25 454.66-13.25L454.66-13.25Q454.66-9.25 452.94-6.18 451.21-3.1 448.16-1.4 445.11 0.3 441.26 0.3L441.26 0.3Q438.41 0.3 436.04-0.8 433.66-1.9 432.01-4L432.01-4 432.01 9.7 427.21 9.7 427.21-26.5 431.81-26.5 431.81-22.3Q433.41-24.5 435.86-25.63 438.31-26.75 441.26-26.75L441.26-26.75ZM440.86-3.9Q443.41-3.9 445.44-5.08 447.46-6.25 448.64-8.38 449.81-10.5 449.81-13.25L449.81-13.25Q449.81-16 448.64-18.13 447.46-20.25 445.44-21.4 443.41-22.55 440.86-22.55L440.86-22.55Q438.36-22.55 436.34-21.38 434.31-20.2 433.14-18.1 431.96-16 431.96-13.25L431.96-13.25Q431.96-10.5 433.11-8.38 434.26-6.25 436.31-5.08 438.36-3.9 440.86-3.9L440.86-3.9ZM473.26-3.9Q478.01-3.9 480.91-7.1L480.91-7.1 483.51-4Q481.76-1.9 479.09-0.8 476.41 0.3 473.11 0.3L473.11 0.3Q468.91 0.3 465.66-1.43 462.41-3.15 460.64-6.25 458.86-9.35 458.86-13.25L458.86-13.25Q458.86-17.1 460.59-20.2 462.31-23.3 465.34-25.03 468.36-26.75 472.16-26.75L472.16-26.75Q475.76-26.75 478.71-25.13 481.66-23.5 483.41-20.55 485.16-17.6 485.21-13.75L485.21-13.75 464.16-9.65Q465.16-6.9 467.54-5.4 469.91-3.9 473.26-3.9L473.26-3.9ZM472.16-22.7Q469.66-22.7 467.69-21.55 465.71-20.4 464.61-18.32 463.51-16.25 463.51-13.5L463.51-13.5 463.51-13 480.46-16.2Q479.81-19.1 477.56-20.9 475.31-22.7 472.16-22.7L472.16-22.7ZM496.51-22.05Q497.76-24.35 500.21-25.55 502.66-26.75 506.16-26.75L506.16-26.75 506.16-22.1Q505.76-22.15 505.06-22.15L505.06-22.15Q501.16-22.15 498.93-19.83 496.71-17.5 496.71-13.2L496.71-13.2 496.71 0 491.91 0 491.91-26.5 496.51-26.5 496.51-22.05Z" opacity="1" transform="matrix(1,0,0,1,0,0)" fill="#ffffff" class="undefined-text-1" data-fill-palette-color="secondary" id="text-1"></path></svg></g></svg></g></svg></g></svg></g><g transform="matrix(1,0,0,1,18.76607838224688,0)"><svg viewBox="0 0 60.71956251428571 87.85789219303413" height="87.85789219303413" width="60.71956251428571"><g><svg xmlns="http://www.w3.org/2000/svg" xmlns:xlink="http://www.w3.org/1999/xlink" version="1.1" x="0" y="0" viewBox="18.899999618530273 5 62.19999694824219 90" enable-background="new 0 0 100 100" xml:space="preserve" height="87.85789219303413" width="60.71956251428571" class="icon-icon-0" data-fill-palette-color="accent" id="icon-0"><g fill="#ff0000" data-fill-palette-color="accent"><path d="M81.1 36.1C81.1 19 67.2 5 50 5S18.9 19 18.9 36.1c0 15.9 12 29 27.4 30.9v11.7h-10v7.5h10V95h7.5v-8.8h10v-7.5h-10V67C69.2 65.2 81.1 52 81.1 36.1zM26.4 36.1c0-13 10.6-23.6 23.6-23.6 13 0 23.6 10.6 23.6 23.6S63 59.8 50 59.8C37 59.8 26.4 49.2 26.4 36.1z" fill="#ff0000" data-fill-palette-color="accent"></path><polygon points="30,38.8 42.5,47.5 42.5,42.5 33.6,36.2 42.5,30 42.5,25 30,33.8  " fill="#ff0000" data-fill-palette-color="accent"></polygon><polygon points="70,33.8 57.5,25 57.5,30 66.4,36.2 57.5,42.5 57.5,47.5 70,38.8  " fill="#ff0000" data-fill-palette-color="accent"></polygon><polygon points="55,25 50,25 45,47.5 50,47.5  " fill="#ff0000" data-fill-palette-color="accent"></polygon></g></svg></g></svg></g><g></g></svg></g></svg></g></svg></g></svg></g><defs></defs></svg><rect width="320" height="360" fill="none" stroke="none" visibility="hidden"></rect></g></svg></g></svg>